{"title":"The Art of Happiness a.k.a L arte della felicita (2013) HDRip","uid":14439771,"size":1851407061,"categoryP":"video","categoryS":"hd___movies","magnet":"?xt=urn:btih:65994c4717e88100f7560dd0e57dfe5e638e995e&amp;dn=The+Art+of+Happiness+a.k.a+L+arte+della+felicita+%282013%29+HDRip&amp;tr=udp%3A%2F%2Ftracker.leechers-paradise.org%3A6969&amp;tr=udp%3A%2F%2Fzer0day.ch%3A1337&amp;tr=udp%3A%2F%2Fopen.demonii.com%3A1337&amp;tr=udp%3A%2F%2Ftracker.coppersurfer.tk%3A6969&amp;tr=udp%3A%2F%2Fexodus.desync.com%3A6969","seeders":0,"leechers":0,"uploader":"Horisarte","files":1,"time":1461669262,"description":"L'arte della felicità\r\n \nhttp://mr.comingsoon.it/imgdb/locandine/big/50241.jpg\r\n\r\nUnique ID : 134405657410055838424889955587859715293 (0x651D968924225F207DA37921BCA094DD)\r\n      Complete name : d:DOWNLOADS!Moi TorentyThe art of HapynessL'Arte Della Felicita 720p H264 Ita Ac3 Sub Rus  Eng.mkv\r\n      Format : Matroska\r\n      Format version : Version 2\r\n      File size : 1.72 GiB\r\n      Duration : 1h 24mn\r\n      Overall bit rate : 2 929 Kbps\r\n      Encoded date : UTC\r\n      Writing application : HandBrake 0.10.2 2015060900\r\n      Writing library : Lavf55.12.0 / Lavf55.12.0\r\n   Video #1\r\n      ID : 1\r\n      Format : AVC\r\n      Format/Info : Advanced Video Codec\r\n      Format profile :   \r\n      Format settings, CABAC : Yes\r\n      Format settings, ReFrames : 7 frames\r\n      Codec ID : V_MPEG4/ISO/AVC\r\n      Duration : 1h 24mn\r\n      Bit rate : 2 500 Kbps\r\n      Width : 1 152 pixels\r\n      Height : 622 pixels\r\n      Display aspect ratio : 1.85:1\r\n      Original display aspect ratio : 1.85:1\r\n      Frame rate mode : Constant\r\n      Frame rate : 24.000 fps\r\n      Color space : YUV\r\n      Chroma subsampling : 4:2:0\r\n      Bit depth : 8 bits\r\n      Scan type : Progressive\r\n      Bits/(Pixel*Frame) : 0.145\r\n      Stream size : 1.43 GiB (83%)\r\n      Writing library : x264 core 142 r2479 dd79a61\r\n      Encoding settings  : cabac=1 / ref=7 / deblock=1:0:0 / analyse=0x3:0x113 / me=umh / subme=9 / psy=1 / psy_rd=1.00:0.00 / mixed_ref=1 / me_range=24 / chroma_me=1 / trellis=1 / 8x8dct=1 / cqm=0 /     deadzone=21,11 / fast_pskip=1 / chroma_qp_offset=-2 / threads=6 / lookahead_threads=1 / sliced_threads=0 / nr=0 / decimate=1 / interlaced=0 / bluray_compat=0 / constrained_intra=0 / bframes=7 / b_pyramid=2 / b_adapt=1 / b_bias=0 / direct=1 / weightb=1 / open_gop=0 / weightp=2 / keyint=240 / keyint_min=24 / scenecut=40 / intra_refresh=0 / rc_lookahead=40 / rc=2pass / mbtree=1 / bitrate=2500 / ratetol=1.0 / qcomp=0.60 / qpmin=0 / qpmax=69 / qpstep=4 / cplxblur=20.0 / qblur=0.5 / vbv_maxrate=62500 / vbv_bufsize=78125 / nal_hrd=none / filler=0 / ip_ratio=1.40 / aq=1:1.00\r\n      Default : Yes\r\n      Forced : No\r\n      Color range : Limited\r\n      Color primaries : BT.709\r\n      Transfer characteristics : BT.709\r\n      Matrix coefficients : BT.709\r\n   Audio #2\r\n      ID : 2\r\n      Format : AC-3\r\n      Format/Info : Audio Coding 3\r\n      Mode extension : CM (complete main)\r\n      Format settings, Endianness : Big\r\n      Codec ID : A_AC3\r\n      Duration : 1h 24mn\r\n      Bit rate mode : Constant\r\n      Bit rate : 448 Kbps\r\n      Channel(s) : 6 channels\r\n      Channel positions : Front: L C R, Side: L R, LFE\r\n      Sampling rate : 48.0 KHz\r\n      Compression mode : Lossy\r\n      Delay relative to video : 27ms\r\n      Stream size : 270 MiB (15%)\r\n      Title : Surround\r\n      Language : Italian\r\n      Default : Yes\r\n      Forced : No\r\n   Text #3\r\n      ID : 3\r\n      Format : ASS\r\n      Codec ID : S_TEXT/ASS\r\n      Codec ID/Info : Advanced Sub Station Alpha\r\n      Compression mode : Lossless\r\n      Language : English\r\n      Default : No\r\n      Forced : No\r\n   Text #4\r\n      ID : 4\r\n      Format : ASS\r\n      Codec ID : S_TEXT/ASS\r\n      Codec ID/Info : Advanced Sub Station Alpha\r\n      Compression mode : Lossless\r\n      Language : Russian\r\n      Default : Yes\r\n      Forced : No\r\n \nhttps://en.wikipedia.org/wiki/The_Art_of_Happiness_(film)\r\n \nhttp://extraimago.com/image/amQM \nhttp://extraimago.com/image/amQU \nhttp://extraimago.com/image/amQz","torrent":{"xt":"urn:btih:65994c4717e88100f7560dd0e57dfe5e638e995e","amp;dn":"The+Art+of+Happiness+a.k.a+L+arte+della+felicita+%282013%29+HDRip","amp;tr":["udp%3A%2F%2Ftracker.leechers-paradise.org%3A6969","udp%3A%2F%2Fzer0day.ch%3A1337","udp%3A%2F%2Fopen.demonii.com%3A1337","udp%3A%2F%2Ftracker.coppersurfer.tk%3A6969","udp%3A%2F%2Fexodus.desync.com%3A6969"],"infoHash":"65994c4717e88100f7560dd0e57dfe5e638e995e","infoHashBuffer":{"type":"Buffer","data":[101,153,76,71,23,232,129,0,247,86,13,208,229,125,254,94,99,142,153,94]},"announce":[],"urlList":[]}}